<?xml version="1.0" encoding="UTF-8"?>
<svg width="256px" height="256px" viewBox="0 0 256 256" version="1.1" xmlns="http://www.w3.org/2000/svg" xmlns:xlink="http://www.w3.org/1999/xlink">
    <!-- Generator: Sketch 50.2 (55047) - http://www.bohemiancoding.com/sketch -->
    <title>772 x 250 copy</title>
    <desc>Created with Sketch.</desc>
    <defs></defs>
    <g id="772-x-250-copy" stroke="none" stroke-width="1" fill="none" fill-rule="evenodd">
        <polygon id="Rectangle" fill="#363C3E" points="0 0 256 0 256 256 0 256"></polygon>
        <path d="M117.435346,130.679739 L67.3288453,130.679739 C65.04472,130.679739 63.1930706,128.762568 63.1930706,126.397618 C63.1930706,124.032668 65.04472,122.115497 67.3288453,122.115497 L195.53786,122.115497 C204.166777,122.115497 211.161897,129.358142 211.161897,138.292398 C211.161897,147.226653 204.166777,154.469298 195.53786,154.469298 L191.861615,154.469298 L146.792276,154.542497 C142.751132,154.542497 139.475136,157.934414 139.475136,162.118557 C139.475136,166.302699 142.751132,169.694616 146.792276,169.694616 L203.809409,169.694616 C205.839742,169.694616 207.485653,171.398768 207.485653,173.500946 C207.485653,175.603124 205.839742,177.307276 203.809409,177.307276 L180.373352,177.307276 C178.596811,177.307276 177.156639,178.798408 177.156639,180.637814 C177.156639,182.477219 178.596811,183.968352 180.373352,183.968352 L191.861615,183.968352 C196.056652,185.040383 199.214104,188.880501 199.214104,193.484176 C199.214104,198.739621 195.099327,203 190.023493,203 L85.2505354,203 C80.1747015,203 76.0599251,198.739621 76.0599251,193.484176 C76.0599251,188.880501 79.2173771,185.040383 83.4124134,184.158703 L100.874573,183.968352 C105.950407,183.968352 110.065183,179.707973 110.065183,174.452528 C110.065183,169.197084 105.950407,164.936705 100.874573,164.936705 L56.7596434,164.936705 C51.6838094,164.936705 47.569033,160.676325 47.569033,155.420881 C47.569033,150.165436 51.6838094,145.905057 56.7596434,145.905057 L83.4124134,145.905057 L117.435346,145.868457 C121.486252,145.868457 124.77016,142.468347 124.77016,138.274098 C124.77016,134.079849 121.486252,130.679739 117.435346,130.679739 Z" id="Combined-Shape" fill="#4A4F51"></path>
        <g id="Group" transform="translate(36.000000, 30.000000)">
            <text id="MAPS" font-family="OpenSans-ExtraboldItalic, Open Sans" font-size="44" font-style="italic" font-weight="600" line-spacing="33" fill="#FFFFFF">
                <tspan x="62" y="56">MAPS</tspan>
            </text>
            <g id="clicksports_logo_print_wortbild" fill="#B4CF0E" fill-rule="nonzero">
                <path d="M40.1249511,32.5465116 C40.1249511,32.5465116 40.1249511,32.4062262 40.1249511,32.4062262 C39.7137519,31.003373 40.5361503,29.6005197 41.9068142,29.1796638 C44.2369429,28.4782371 46.5670715,27.9170958 48.8972002,27.2156692 C49.0342666,25.2516746 49.0342666,23.2876801 48.8972002,21.4639709 C48.6230674,13.8885633 46.9782707,7.01458234 44.2369429,1.8240253 C31.6268348,-1.82339316 16.5495317,0.140601399 6.40661868,6.45344104 C0.238631042,16.6942698 -1.81736484,32.2659409 1.74636135,45.3124762 C6.81781786,48.1181827 13.6711375,49.6613213 21.0727226,49.9418919 C23.5399177,50.0821772 25.8700463,49.9418919 28.3372414,49.8016066 C28.200175,49.5210359 28.200175,49.10018 28.3372414,48.679324 C28.885507,46.2944735 29.5708389,43.7693376 30.1191045,41.2442017 C30.5303037,39.8413485 31.7639012,39.1399219 33.1345651,39.5607778 C33.1345651,39.5607778 33.2716315,39.5607778 33.2716315,39.5607778 C34.6422954,39.9816338 35.4646938,41.3844871 35.0534946,42.7873403 C34.505229,45.0319055 33.8198971,47.1361854 33.2716315,49.2404653 C37.3836233,48.679324 41.3585486,47.6973267 45.1964076,46.2944735 C46.5670715,42.0859137 47.6636027,37.456498 48.2118682,32.9673675 C46.5670715,33.3882235 44.9222748,33.9493648 43.1404117,34.3702208 C42.0438806,34.7910768 40.5361503,33.9493648 40.1249511,32.5465116 Z M27.7889758,38.7190659 C25.3217808,39.4204925 22.9916521,39.9816338 20.7985898,40.5427751 C19.7020587,40.8233458 18.4684612,39.9816338 18.1943284,38.7190659 C18.1943284,38.7190659 18.1943284,38.5787806 18.1943284,38.5787806 C17.9201956,37.3162126 18.4684612,35.9133594 19.7020587,35.6327887 C21.895121,34.9313621 24.2252496,34.2299355 26.5553783,33.5285088 C27.7889758,33.1076529 29.1596398,33.9493648 29.4337725,35.3522181 C29.4337725,35.3522181 29.4337725,35.4925034 29.4337725,35.4925034 C29.8449717,36.8953567 29.1596398,38.2982099 27.7889758,38.7190659 Z M31.0785692,29.8810904 C31.0785692,29.8810904 30.9415029,29.8810904 31.0785692,29.8810904 C29.9820381,31.003373 28.4743078,31.003373 27.5148431,30.0213757 C25.73298,28.1976665 24.0881833,26.3739572 22.5804529,24.6905333 C21.7580546,23.8488214 21.895121,22.3056828 22.7175193,21.3236855 C22.7175193,21.3236855 22.7175193,21.3236855 22.8545857,21.1834002 C23.8140505,20.2014029 25.1847144,20.0611176 26.0071127,20.9028296 C27.6519094,22.5862535 29.2967061,24.2696774 31.0785692,26.0933866 C32.038034,27.2156692 32.038034,28.7588078 31.0785692,29.8810904 Z M36.2870921,28.4782371 C36.2870921,28.4782371 36.1500257,28.4782371 36.1500257,28.4782371 C34.7793618,28.0573812 33.9569635,26.7948132 34.3681627,25.39196 C35.0534946,22.8668241 35.7388266,20.3416883 36.5612249,17.9568377 C36.9724241,16.6942698 38.2060216,15.9928432 39.5766855,16.2734138 C39.5766855,16.2734138 39.7137519,16.2734138 39.7137519,16.2734138 C41.0844159,16.5539845 41.7697478,17.8165524 41.495615,19.0791203 C40.8102831,21.4639709 40.1249511,23.9891067 39.4396192,26.6545279 C39.1654864,27.9170958 37.6577561,28.7588078 36.2870921,28.4782371 Z" id="Shape"></path>
            </g>
        </g>
        <g id="Element-26" transform="translate(76.000000, 100.000000)">
            <ellipse id="Oval" fill="#EBEBEB" fill-rule="nonzero" cx="56.0913308" cy="129.883602" rx="26.2501141" ry="2.73629491"></ellipse>
            <ellipse id="Oval" fill="#EBEBEB" fill-rule="nonzero" cx="56.0913308" cy="57.4501389" rx="15.2954373" ry="15.2485157"></ellipse>
            <path d="M84.010038,86.8502415 L60.2144487,110.584888 L36.4188593,86.8502415 C30.1073661,80.558889 26.5615405,72.0255164 26.5615405,63.1276495 C26.5615405,54.2297827 30.1073661,45.69641 36.4188593,39.4050575 C42.729571,33.112926 51.289202,29.5779779 60.2144487,29.5779779 C69.1396954,29.5779779 77.6993263,33.112926 84.010038,39.4050575 C90.1839358,45.5410125 93.7147496,53.8350251 93.8523194,62.5249414 C94.0334108,51.8639283 89.8611972,41.5872158 82.2930798,34.0530093 C74.8820634,26.6604091 64.8279679,22.5069264 54.3441445,22.5069264 C43.8603211,22.5069264 33.8062256,26.6604091 26.3952091,34.0530093 C18.979861,41.4412911 14.8135974,51.4645439 14.8135974,61.9162062 C14.8135974,72.3678685 18.979861,82.3911212 26.3952091,89.779403 L54.3380989,117.648627 L82.2930798,89.779403 C86.0422681,86.0504872 88.9990239,81.6064107 90.986692,76.7126908 C89.309111,80.4924246 86.9436442,83.9296079 84.010038,86.8502415 Z" id="Shape" fill="#EBEBEB" fill-rule="nonzero"></path>
            <path d="M29.0190114,88.4052285 C18.07071,77.4953198 14.7935021,61.0843935 20.7158007,46.82612 C26.6380992,32.5678465 40.5933665,23.2707319 56.0731939,23.2707319 C71.5530213,23.2707319 85.5082886,32.5678465 91.4305872,46.82612 C97.3528857,61.0843935 94.0756779,77.4953198 83.1273764,88.4052285 L56.0913308,115.37039 L29.0190114,88.4052285 Z" id="Shape" fill="#FFFFFF" fill-rule="nonzero"></path>
            <path d="M56.0913308,26.3021828 C70.3458082,26.297394 83.1988307,34.8555839 88.6544329,47.9843367 C94.1100352,61.1130894 91.0932469,76.2255191 81.0114068,86.2716417 L56.0913308,111.115271 L31.183346,86.2716417 C21.1030639,76.2270699 18.0855083,61.1175645 23.5380087,47.9899066 C28.9905092,34.8622488 41.8390542,26.3022715 56.0913308,26.3021828 Z M56.0913308,20.2751015 C45.1397596,20.2568737 34.6335582,24.5957186 26.9030418,32.3292641 C10.7833856,48.400303 10.7833856,74.4557221 26.9030418,90.5267611 L56.0913308,119.637564 L85.291711,90.5267611 C101.411367,74.4557221 101.411367,48.400303 85.291711,32.3292641 C77.5582397,24.5927508 67.0470907,20.2536601 56.0913308,20.2751015 Z" id="Shape" fill="#3C4042" fill-rule="nonzero"></path>
            <ellipse id="Oval" fill="#BED23B" fill-rule="nonzero" cx="76.5255513" cy="1.20541626" rx="1.20912548" ry="1.20541626"></ellipse>
            <ellipse id="Oval" fill="#BED23B" fill-rule="nonzero" cx="74.8569582" cy="10.1978216" rx="1.20912548" ry="1.20541626"></ellipse>
            <ellipse id="Oval" stroke="#BED23B" stroke-width="2.4" cx="93.4291255" cy="11.2585879" rx="3.02281369" ry="3.01354065"></ellipse>
            <path d="M100.115589,36.7893042 L105.9073,38.5009953" id="Shape" stroke="#BED23B" stroke-width="2.4" stroke-linecap="round"></path>
            <path d="M103.87597,34.7642049 L102.159011,40.5381488" id="Shape" stroke="#BED23B" stroke-width="2.4" stroke-linecap="round"></path>
            <ellipse id="Oval" fill="#BED23B" fill-rule="nonzero" cx="22.7315589" cy="115.213686" rx="1.20912548" ry="1.20541626"></ellipse>
            <ellipse id="Oval" stroke="#BED23B" stroke-width="2.4" cx="4.98159696" cy="92.7567812" rx="3.02281369" ry="3.01354065"></ellipse>
            <path d="M6.03353612,60.6927087 L0,61.0543336" id="Shape" stroke="#BED23B" stroke-width="2.4" stroke-linecap="round"></path>
            <path d="M3.20418251,63.8750076 L2.82935361,57.8599805" id="Shape" stroke="#BED23B" stroke-width="2.4" stroke-linecap="round"></path>
            <path d="M29.4180228,59.752484 C29.4061378,47.9273607 34.4241647,36.6517235 43.2262357,28.7250695 C32.1653943,33.0594159 24.0404128,42.6590093 21.6155176,54.2579408 C19.1906224,65.8568724 22.7923847,77.8930632 31.1954373,86.2716417 L56.1155133,111.115271 L66.0061597,101.254966 C45.0814003,98.55291 29.4194516,80.7873226 29.4180228,59.752484 Z" id="Shape" fill="#EBEBEB" fill-rule="nonzero"></path>
            <ellipse id="Oval" fill="#BED23B" fill-rule="nonzero" cx="56.0913308" cy="55.6179062" rx="10.4347529" ry="10.4027423"></ellipse>
            <path d="M56.0913308,48.2166504 C60.1848318,48.2166504 63.50327,51.5249087 63.50327,55.6058521 C63.50327,59.6867955 60.1848318,62.9950537 56.0913308,62.9950537 C51.9978298,62.9950537 48.6793916,59.6867955 48.6793916,55.6058521 C48.6860487,51.5276608 52.0005904,48.223287 56.0913308,48.2166504 Z M56.0913308,42.1895691 C48.6620742,42.1962266 42.6436356,48.2033979 42.6458616,55.6098665 C42.6480876,63.0163351 48.670136,69.0199098 56.0993953,69.022129 C63.5286545,69.0243482 69.5543106,63.0243722 69.5609886,55.6179062 C69.5642006,52.0555091 68.1461115,48.6380982 65.619364,46.119102 C63.0926166,43.6001058 59.6646899,42.1863669 56.0913308,42.1895691 Z" id="Shape" fill="#3C4042" fill-rule="nonzero"></path>
        </g>
    </g>
</svg>